<?xml version="1.0" standalone="no"?>
<!DOCTYPE svg PUBLIC "-//W3C//DTD SVG 20010904//EN"
 "http://www.w3.org/TR/2001/REC-SVG-20010904/DTD/svg10.dtd">
<svg version="1.0" xmlns="http://www.w3.org/2000/svg"
 width="150.000000pt" height="150.000000pt" viewBox="0 0 150.000000 150.000000"
 preserveAspectRatio="xMidYMid meet">

<g transform="translate(0.000000,150.000000) scale(0.100000,-0.100000)"
fill="#000000" stroke="none">
<path d="M530 1470 c-53 -27 -130 -99 -178 -168 -46 -64 -67 -148 -67 -272 0
-110 2 -120 44 -242 l44 -128 -24 -19 c-33 -28 -63 -26 -77 4 -8 17 -20 25
-36 25 -33 0 -115 -57 -151 -106 -16 -23 -42 -49 -57 -58 l-28 -17 0 -245 0
-244 593 0 593 0 2 29 c1 15 9 46 17 67 l15 39 -3 -68 -2 -68 64 3 c72 3 68 0
104 103 66 188 89 278 78 302 -11 23 -12 22 -44 -39 -18 -35 -39 -79 -46 -98
-19 -50 -36 -91 -50 -120 l-12 -25 6 25 c33 155 42 249 30 319 -5 33 -8 36
-41 36 -40 0 -44 -5 -80 -98 -15 -37 -24 -82 -24 -113 0 -104 -26 -126 -83
-72 l-29 27 32 41 c17 22 36 40 41 40 5 0 9 5 9 10 0 6 -9 10 -19 10 -31 0
-33 16 -5 49 20 24 22 31 10 31 -9 0 -16 6 -16 14 0 23 50 76 71 76 24 0 24
-4 -6 58 -14 29 -25 57 -25 62 0 6 -12 28 -26 50 -22 33 -25 48 -22 94 3 59
-5 74 -16 30 -5 -19 -11 -24 -23 -20 -9 4 -20 1 -24 -6 -4 -7 -12 -9 -16 -4
-4 4 0 13 10 20 16 13 16 14 -2 37 -30 39 -33 63 -11 79 19 14 19 15 -12 47
-29 30 -31 35 -18 58 14 27 35 33 43 13 3 -9 10 -6 22 10 9 12 23 22 32 22 9
0 13 6 10 15 -4 8 -2 17 3 20 13 8 13 62 0 70 -15 9 -12 25 4 19 24 -9 29 33
8 64 -10 15 -22 39 -26 54 -3 16 -18 33 -34 40 -15 7 -27 20 -27 28 0 19 -94
82 -154 104 -35 12 -79 16 -181 15 -128 -1 -138 -2 -190 -29z m574 -286 c3 -8
2 -12 -4 -9 -6 3 -10 10 -10 16 0 14 7 11 14 -7z m-184 -35 c0 -5 -9 -9 -20
-9 -19 0 -26 11 -14 23 8 8 34 -3 34 -14z m85 -9 c3 -5 1 -10 -4 -10 -6 0 -11
5 -11 10 0 6 2 10 4 10 3 0 8 -4 11 -10z"/>
<path d="M1170 800 c-8 -5 -10 -10 -5 -10 6 0 17 5 25 10 8 5 11 10 5 10 -5 0
-17 -5 -25 -10z"/>
<path d="M1490 169 c0 -27 -52 -137 -57 -121 -8 21 -27 13 -45 -18 l-17 -30
64 0 65 0 0 95 c0 52 -2 95 -5 95 -3 0 -5 -9 -5 -21z"/>
</g>
</svg>
